Land_normalized_pl07_filtered_grf
version=1
nRows=27
nColumns=37
inDegrees=yes
endheader
time		1_ground_force_vx		1_ground_force_vy		1_ground_force_vz		1_ground_force_px		1_ground_force_py		1_ground_force_pz		1_ground_torque_x		1_ground_torque_y		1_ground_torque_z		2_ground_force_vx		2_ground_force_vy		2_ground_force_vz		2_ground_force_px		2_ground_force_py		2_ground_force_pz		2_ground_torque_x		2_ground_torque_y		2_ground_torque_z		3_ground_force_vx		3_ground_force_vy		3_ground_force_vz		3_ground_force_px		3_ground_force_py		3_ground_force_pz		3_ground_torque_x		3_ground_torque_y		3_ground_torque_z		4_ground_force_vx		4_ground_force_vy		4_ground_force_vz		4_ground_force_px		4_ground_force_py		4_ground_force_pz		4_ground_torque_x		4_ground_torque_y		4_ground_torque_z		
0.707000		-1.060664		-26.620331		-16.940332		0.136714		0.000000		0.185159		-0.010088		-0.253175		-0.161113		1.530186		-23.786505		-12.128707		-0.208954		0.000000		0.210834		0.057470		-0.893368		-0.455527		-0.213886		-0.605421		-1.199789		0.413344		1.262768		1.873524		0.039703		0.002360		0.024751		-1.905669		-1.582056		-2.199650		-0.353339		1.255862		1.900507		0.029540		-0.041217		0.034089		
0.709828		-0.490585		-39.972611		-24.784047		0.136238		0.000000		0.178409		-0.005193		-0.423469		-0.262559		0.933658		-35.430882		-19.245178		-0.218487		0.000000		0.207196		0.039458		-1.498392		-0.813914		-0.096127		-0.671065		-1.268500		0.413349		1.262796		1.873589		0.037798		-0.000808		0.025110		-1.934846		-1.602241		-2.232931		-0.353315		1.255886		1.900581		0.030648		-0.039287		0.033380		
0.712657		0.385062		-50.135220		-30.689629		0.135976		0.000000		0.173055		0.004298		-0.559251		-0.342338		-0.031299		-44.317123		-25.222573		-0.225661		0.000000		0.204913		-0.001443		-2.012998		-1.145697		0.034582		-0.722572		-1.351464		0.413350		1.262822		1.873656		0.035811		-0.003706		0.025364		-1.950025		-1.627633		-2.278967		-0.353298		1.255912		1.900658		0.031850		-0.037828		0.033027		
0.715485		1.522288		-53.613387		-32.717014		0.135763		0.000000		0.166823		0.017426		-0.613705		-0.374507		-1.307495		-47.489545		-28.435092		-0.233275		0.000000		0.202931		-0.063102		-2.291795		-1.372252		0.155988		-0.751399		-1.445539		0.413350		1.262845		1.873725		0.033834		-0.006225		0.025487		-1.944347		-1.656841		-2.337993		-0.353287		1.255939		1.900741		0.033013		-0.036776		0.033052		
0.718313		2.815374		-46.441009		-28.751912		0.135600		0.000000		0.155883		0.031624		-0.521856		-0.323079		-2.751596		-41.643227		-27.033172		-0.245086		0.000000		0.200474		-0.142132		-2.150107		-1.395854		0.247984		-0.752476		-1.546112		0.413349		1.262864		1.873796		0.031977		-0.008279		0.025512		-1.913504		-1.689345		-2.409429		-0.353283		1.255967		1.900826		0.034007		-0.035987		0.033435		
0.721141		4.090584		-24.951631		-16.975077		0.137452		0.000000		0.117601		0.024919		-0.157075		-0.106300		-4.121481		-23.800372		-19.315649		-0.278790		0.000000		0.194365		-0.229707		-1.326447		-1.076517		0.297056		-0.725543		-1.648145		0.413348		1.262880		1.873872		0.030343		-0.009835		0.025530		-1.857030		-1.725313		-2.491265		-0.353285		1.255996		1.900916		0.034717		-0.035275		0.034091		
0.723970		5.119208		14.010966		3.987808		0.156329		0.000000		0.305731		-0.207236		-0.513976		-0.132353		-5.085851		8.489422		-3.872463		-0.133155		0.000000		0.335368		0.512878		-0.915149		0.453835		0.297464		-0.674150		-1.747229		0.413347		1.262892		1.873950		0.029017		-0.010910		0.025661		-1.777721		-1.765251		-2.580404		-0.353293		1.256024		1.901008		0.035031		-0.034446		0.034893		
0.726798		5.628176		72.573067		34.733573		0.139841		0.000000		0.213359		0.053631		0.694070		0.332286		-5.229900		56.681922		20.126492		-0.185039		0.000000		0.212429		-0.135051		1.474545		0.525076		0.251924		-0.605323		-1.839768		0.413346		1.262901		1.874032		0.028051		-0.011549		0.026030		-1.681842		-1.809392		-2.672803		-0.353304		1.256050		1.901104		0.034849		-0.033333		0.035678		
0.729626		5.347016		150.918520		74.593408		0.138195		0.000000		0.198655		0.064131		1.810911		0.895069		-4.114002		120.476030		52.466838		-0.203678		0.000000		0.206856		-0.155533		4.559223		1.985709		0.171721		-0.528668		-1.923158		0.413345		1.262908		1.874116		0.027468		-0.011818		0.026728		-1.578842		-1.857005		-2.764031		-0.353320		1.256073		1.901203		0.034108		-0.031814		0.036287		
0.732455		4.034492		247.576044		121.776350		0.137735		0.000000		0.192918		0.052279		3.208500		1.578177		-1.301091		198.046172		91.957535		-0.211564		0.000000		0.204784		-0.054838		8.352588		3.878335		0.073273		-0.454321		-1.995396		0.413342		1.262915		1.874200		0.027277		-0.011774		0.027789		-1.479756		-1.906123		-2.849919		-0.353336		1.256093		1.901303		0.032796		-0.029827		0.036591		
0.735283		1.526023		359.203006		173.291884		0.137606		0.000000		0.190103		0.020835		4.908756		2.368131		3.580782		285.887491		136.288727		-0.216152		0.000000		0.203586		0.160142		12.779462		6.092280		-0.023964		-0.391623		-2.054919		0.413337		1.262922		1.874283		0.027478		-0.011466		0.029186		-1.395949		-1.953378		-2.926885		-0.353353		1.256107		1.901404		0.030964		-0.027391		0.036514		
0.738111		-2.201462		480.778358		225.251258		0.137639		0.000000		0.188724		-0.031577		6.892946		3.229411		10.730567		379.103279		182.176564		-0.219239		0.000000		0.202798		0.499235		17.635886		8.474855		-0.101059		-0.347277		-2.100768		0.413327		1.262929		1.874363		0.028056		-0.010958		0.030829		-1.336743		-1.994525		-2.992241		-0.353369		1.256117		1.901503		0.028740		-0.024611		0.036061		
0.740939		-7.032692		606.588165		273.498314		0.137790		0.000000		0.188266		-0.105858		9.129689		4.116364		20.163662		472.307765		225.849357		-0.221424		0.000000		0.202319		0.967410		22.659651		10.835441		-0.142349		-0.324832		-2.132213		0.413313		1.262938		1.874438		0.028985		-0.010340		0.032588		-1.308099		-2.025012		-3.043981		-0.353384		1.256122		1.901600		0.026293		-0.021651		0.035298		
0.743768		-12.696261		730.739436		314.234988		0.138045		0.000000		0.188490		-0.201161		11.576475		4.978049		31.634748		560.313389		263.510822		-0.222941		0.000000		0.202173		1.555836		27.555766		12.959203		-0.137931		-0.324300		-2.148760		0.413295		1.262947		1.874507		0.030216		-0.009744		0.034310		-1.311170		-2.040895		-3.080945		-0.353398		1.256121		1.901692		0.023828		-0.018712		0.034345		
0.746596		-18.796970		847.947038		344.898198		0.138392		0.000000		0.189234		-0.314317		14.178358		5.766882		44.608740		639.129806		292.118267		-0.223881		0.000000		0.202449		2.236173		32.038213		14.643225		-0.086080		-0.342387		-2.150062		0.413271		1.262957		1.874568		0.031665		-0.009333		0.035837		-1.341647		-2.039958		-3.103294		-0.353413		1.256116		1.901779		0.021550		-0.015975		0.033347		
0.749424		-24.886707		953.827330		364.457973		0.138810		0.000000		0.190372		-0.440129		16.868213		6.445260		58.333326		706.328165		309.752167		-0.224274		0.000000		0.203281		2.960855		35.851276		15.722142		0.007310		-0.373833		-2.135368		0.413246		1.262967		1.874621		0.033212		-0.009281		0.037016		-1.391199		-2.021967		-3.112566		-0.353428		1.256107		1.901858		0.019643		-0.013574		0.032440		
0.752253		-30.513273		1045.152660		373.694906		0.139265		0.000000		0.191776		-0.571028		19.558289		6.992872		71.894391		761.298446		316.058099		-0.224146		0.000000		0.204810		3.663797		38.796430		16.106602		0.128769		-0.412092		-2.103780		0.413217		1.262976		1.874665		0.034714		-0.009723		0.037717		-1.448640		-1.989147		-3.112136		-0.353446		1.256096		1.901931		0.018251		-0.011562		0.031723		
0.755081		-35.283729		1119.999598		374.899974		0.139712		0.000000		0.193313		-0.697628		22.144263		7.412291		84.366602		805.089223		312.307776		-0.223551		0.000000		0.207137		4.271574		40.762755		15.812630		0.259721		-0.450420		-2.054738		0.413188		1.262982		1.874699		0.036017		-0.010721		0.037860		-1.502307		-1.945922		-3.106904		-0.353466		1.256084		1.901996		0.017457		-0.009910		0.031239		
0.757909		-38.886372		1177.304395		371.063144		0.140096		0.000000		0.194846		-0.809813		24.517304		7.727270		94.912576		839.705499		300.901403		-0.222574		0.000000		0.210293		4.716331		41.726372		14.952437		0.379920		-0.482741		-1.988301		0.413162		1.262985		1.874723		0.036982		-0.012251		0.037410		-1.541970		-1.898002		-3.102370		-0.353489		1.256072		1.902050		0.017281		-0.008529		0.030980		
0.760737		-41.145617		1216.998228		365.292713		0.140362		0.000000		0.196245		-0.898775		26.583683		7.979209		102.878639		867.727105		285.050977		-0.221325		0.000000		0.214201		4.953113		41.777315		13.724334		0.470894		-0.504366		-1.906099		0.413138		1.262985		1.874737		0.037495		-0.014186		0.036398		-1.560245		-1.851644		-3.103406		-0.353515		1.256063		1.902094		0.017666		-0.007304		0.030903		
0.763566		-42.060497		1239.823442		360.124181		0.140460		0.000000		0.197401		-0.959343		28.278715		8.213924		107.845061		891.672700		268.083405		-0.219907		0.000000		0.218670		4.971593		41.105604		12.358679		0.519752		-0.512581		-1.811687		0.413119		1.262980		1.874743		0.037497		-0.016324		0.034909		-1.553279		-1.812693		-3.112702		-0.353545		1.256057		1.902128		0.018489		-0.006140		0.030949		
0.766394		-41.793279		1246.940039		357.227534		0.140354		0.000000		0.198225		-0.990657		29.557240		8.467649		109.591247		913.567168		252.910449		-0.218384		0.000000		0.223427		4.793663		39.960369		11.062813		0.520632		-0.506531		-1.710399		0.413103		1.262971		1.874739		0.036979		-0.018426		0.033063		-1.520133		-1.786142		-3.130043		-0.353574		1.256054		1.902147		0.019591		-0.005004		0.031088		
0.769222		-40.668728		1240.185439		357.307971		0.140035		0.000000		0.198662		-0.996627		30.392140		8.756265		108.179051		934.805577		241.644451		-0.216772		0.000000		0.228150		4.469119		38.618060		9.982917		0.476430		-0.487329		-1.609210		0.413094		1.262960		1.874726		0.035999		-0.020249		0.031013		-1.462847		-1.775405		-3.152171		-0.353602		1.256056		1.902153		0.020795		-0.003941		0.031333		
0.772051		-39.096177		1221.825613		360.212989		0.139515		0.000000		0.198684		-0.984469		30.766480		9.070451		103.934694		956.061701		235.374917		-0.215057		0.000000		0.232528		4.057575		37.323883		9.188900		0.397499		-0.457527		-1.515782		0.413088		1.262947		1.874704		0.034671		-0.021592		0.028927		-1.385694		-1.781864		-3.173928		-0.353627		1.256063		1.902143		0.021942		-0.003069		0.031743		
0.774879		-37.503237		1194.347004		365.171354		0.138829		0.000000		0.198277		-0.963234		30.675680		9.379118		97.402301		977.384397		234.271955		-0.213226		0.000000		0.236293		3.613737		36.261123		8.691569		0.299115		-0.420542		-1.437761		0.413085		1.262932		1.874674		0.033146		-0.022309		0.026976		-1.294592		-1.804947		-3.189729		-0.353646		1.256074		1.902115		0.022914		-0.002544		0.032407		
0.777707		-36.285348		1160.585777		370.980235		0.138034		0.000000		0.197454		-0.942836		30.156558		9.639542		89.365776		998.337971		237.632515		-0.211308		0.000000		0.239264		3.180744		35.532144		8.457646		0.198947		-0.380289		-1.381468		0.413085		1.262917		1.874636		0.031588		-0.022344		0.025323		-1.197198		-1.842022		-3.195175		-0.353658		1.256087		1.902069		0.023643		-0.002503		0.033408		
0.780535		-35.756781		1123.406459		376.333708		0.137197		0.000000		0.196253		-0.932206		29.288055		9.811303		80.737834		1018.178679		244.244014		-0.209370		0.000000		0.241344		2.788517		35.165567		8.435624		0.112910		-0.340369		-1.351074		0.413086		1.262903		1.874591		0.030140		-0.021715		0.024095		-1.102044		-1.889255		-3.188081		-0.353660		1.256103		1.902006		0.024111		-0.003024		0.034787		
